<svg xmlns="http://www.w3.org/2000/svg" xml:space="preserve" viewBox="0 0 1024 768" style="background: #032128"><path d="m504.91 407.06-.444 5.445h8.008l-.172 2.07h-8.008l-.616 7.786h-2.513l1.355-17.37h11.039l-.173 2.07zM515.64 410.34h2.489l-.961 12.024h-2.489zm3.105-5.372-.222 2.588h-2.858l.197-2.588zM527.91 410.04q2.02 0 3.055 1.06 1.06 1.059 1.06 3.129 0 .493-.025.739l-.566 7.392h-2.489l.567-7.269q.024-.172.024-.517 0-2.514-2.414-2.514-1.528 0-2.44.912-.887.912-1.01 2.538l-.542 6.85h-2.489l.961-12.024h2.44l-.148 1.725q.616-.961 1.65-1.479 1.06-.542 2.366-.542zM547.28 404.99l-1.355 17.371h-2.464l.148-1.799q-.592.937-1.627 1.454-1.01.518-2.242.518-1.503 0-2.686-.69-1.158-.715-1.798-2.02-.64-1.307-.64-3.056 0-1.996.714-3.524.714-1.527 1.995-2.365 1.306-.838 2.982-.838 1.355 0 2.365.567 1.01.566 1.553 1.626l.566-7.244zm-6.825 15.572q1.65 0 2.587-1.232.936-1.257.936-3.4 0-1.898-.862-2.883-.863-1.01-2.464-1.01-1.651 0-2.587 1.232-.937 1.232-.937 3.375 0 1.873.863 2.908.887 1.01 2.464 1.01zM567.87 410.36l-8.451 16.435h-2.514l2.44-4.755-4.115-11.68h2.538l3.055 9.167 4.51-9.166zM574.1 422.53q-1.75 0-3.055-.715-1.306-.714-2.02-2.045-.715-1.33-.715-3.08 0-2.02.739-3.523.764-1.503 2.119-2.316 1.38-.813 3.178-.813 1.774 0 3.08.739 1.306.714 2.02 2.045.715 1.306.715 3.08 0 2.02-.763 3.523-.74 1.479-2.12 2.292-1.355.813-3.178.813zm.025-1.971q1.7 0 2.611-1.282.912-1.28.912-3.45 0-1.847-.862-2.808-.838-.986-2.415-.986-1.725 0-2.637 1.282-.911 1.28-.911 3.45 0 1.872.838 2.833.862.96 2.464.96zM593.92 410.34l-.936 12.024h-2.44l.148-1.823q-.616.96-1.65 1.478-1.011.517-2.268.517-1.995 0-3.03-1.06-1.035-1.083-1.035-3.153 0-.443.024-.665l.592-7.318h2.488l-.591 7.17-.025.443q0 2.563 2.39 2.563 1.454 0 2.317-.912.862-.911.985-2.513l.542-6.751zM604.57 410.04v2.094l-1.626.173q-1.7.172-2.538.985-.813.814-.936 2.39l-.543 6.678h-2.488l.96-12h2.391l-.148 1.848q.64-.986 1.676-1.478 1.035-.518 2.513-.641zM615.54 417.9l-.025.419q0 2.291 2.267 2.291.518 0 1.11-.074l-.272 1.873q-.591.123-1.232.123-2.119 0-3.252-1.01-1.11-1.035-1.11-2.957 0-.394.025-.591l.444-5.717h-2.316l.148-1.921h2.316l.295-3.623h2.489l-.296 3.623h3.302l-.148 1.921h-3.302zM628.78 410.04v2.094l-1.626.173q-1.7.172-2.538.985-.813.814-.936 2.39l-.543 6.678h-2.488l.96-12H624l-.148 1.848q.64-.986 1.676-1.478 1.035-.518 2.513-.641zM630.61 410.34h2.489l-.961 12.024h-2.489zm3.105-5.372-.222 2.588h-2.858l.197-2.588zM642.79 410.04q1.503 0 2.661.715 1.183.714 1.823 2.045.641 1.306.641 3.055 0 1.971-.714 3.499-.715 1.503-2.02 2.34-1.282.839-2.958.839-1.38 0-2.39-.567-1.01-.567-1.552-1.651l-.173 2.045h-2.488l1.38-17.371h2.488l-.567 6.998q.616-.912 1.627-1.43 1.035-.517 2.242-.517zm-.912 10.521q1.651 0 2.563-1.232.936-1.232.936-3.4 0-1.873-.862-2.883-.863-1.01-2.464-1.01-1.626 0-2.563 1.256-.936 1.232-.936 3.376 0 1.897.862 2.907.863.986 2.464.986zM655.96 410.04q2.365 0 3.72 1.405 1.356 1.404 1.356 4.09 0 .566-.074 1.232h-8.525q.024 1.823.936 2.833.911.986 2.636.986 2.095 0 3.795-1.33l.64 1.749q-.763.69-2.02 1.108-1.257.42-2.563.42-1.774 0-3.104-.715t-2.07-2.045q-.715-1.33-.715-3.08 0-1.947.74-3.45.764-1.528 2.119-2.365 1.38-.838 3.129-.838zm.099 1.823q-1.479 0-2.39.887-.888.887-1.134 2.588h6.357q.05-1.725-.714-2.588-.764-.887-2.12-.887z" style="font-variant-ligatures:none;fill:#ebe7dc;stroke-width:0;stroke-miterlimit:2" transform="translate(-170.93 -127.13) scale(1.3311)"/><path class="c1" d="M490.53 384.84h-10.518l-10.296-14.843v-8.444h1.663c2.622 0 4.585-.577 5.827-1.72 1.065-.98 1.603-2.394 1.603-4.213 0-1.896-.555-3.338-1.647-4.28-1.12-.97-2.895-1.486-5.118-1.486h-6.542v34.986h-8.7v-43.26h15.912c2.434 0 4.63.35 6.537 1.037 1.88.682 3.487 1.702 4.78 3.027 2.389 2.456 3.653 5.938 3.653 10.074 0 3.71-1.026 6.775-3.05 9.115-1.408 1.625-3.265 2.867-5.544 3.704zM496.27 384.84h27.999v-8.095H496.27zm0-17.41h27.999v-8.261H496.27zm0-25.837v8.261h27.999v-8.261zM528.93 341.59h9.376l10.479 28.731 10.479-28.731h9.32l-16.324 43.247h-7.008zM574.3 344.36l8.705-2.772v43.247H574.3zM588.93 341.59h9.376l10.479 28.731 10.479-28.731h9.32l-16.324 43.247h-7.008zM644.03 383.8a17.04 17.04 0 0 1-5.434-3.665c-1.568-1.57-2.8-3.4-3.664-5.434a17.016 17.016 0 0 1-1.348-6.659v-26.45h8.705v26.447c0 4.63 3.77 8.4 8.4 8.4 4.63 0 8.4-3.77 8.4-8.4v-26.45h8.705v26.447c0 2.307-.455 4.547-1.347 6.659a17.03 17.03 0 0 1-3.665 5.434 17.14 17.14 0 0 1-5.434 3.665 17.015 17.015 0 0 1-6.659 1.347c-2.307 0-4.546-.454-6.659-1.347zM674.92 378.46l-1.17-1.254 5.728-6.852 1.48 1.857a12.338 12.338 0 0 0 4.369 3.443c1.596.754 3.32 1.148 4.984 1.148 1.963 0 3.637-.432 4.713-1.214.97-.704 1.442-1.647 1.442-2.889 0-1.353-.416-2.19-1.475-2.983-1.22-.91-3.194-1.652-5.484-2.517-.194-.072-.393-.15-.598-.227-3.144-1.17-6.166-2.373-8.59-4.303-1.407-1.12-2.45-2.356-3.187-3.775-.82-1.575-1.236-3.366-1.236-5.323 0-3.41 1.475-6.565 4.147-8.883 2.595-2.245 6.082-3.481 9.825-3.481 4.834 0 9.553 1.74 13.639 5.029l1.475 1.192-5.317 6.92-1.552-1.276c-2.734-2.257-5.74-3.548-8.245-3.548-2.329 0-5.057 1.009-5.101 3.853-.017 1.27.593 1.963 1.519 2.611 1.326.932 3.432 1.736 5.661 2.59l.022.005c.35.14.699.278 1.048.41 3.155 1.237 6.138 2.402 8.4 4.265 2.672 2.206 3.975 5.111 3.975 8.887 0 2.046-.437 3.948-1.303 5.655-.815 1.598-1.979 2.99-3.476 4.137-2.727 2.084-6.404 3.238-10.357 3.238-5.844 0-11.29-2.384-15.336-6.714z" style="font-variant-ligatures:normal;fill:#ebe7dc;stroke-width:0;stroke-miterlimit:2" transform="translate(-170.93 -127.13) scale(1.3311)"/><path style="fill:#dbbe51;stroke-width:.44999999" d="M363.76 341.24c-.762-.005-1.617 0-1.899.012-.282.012-.716.034-.963.049a47.78 47.78 0 0 0-2.202.19c-.303.033-.799.096-1.101.137-.303.042-.793.116-1.089.164-.296.049-.774.133-1.063.188-.29.055-.807.162-1.151.238-.344.076-.89.204-1.214.285-.323.081-.813.21-1.088.287-.275.077-.754.218-1.063.313-.31.095-.814.258-1.12.362a54.61 54.61 0 0 0-1.025.361c-.259.095-.684.257-.945.36-.262.103-.693.279-.959.391a50.09 50.09 0 0 0-2.056.934 42.987 42.987 0 0 0-2.853 1.528c-.282.164-.749.446-1.038.626a51.889 51.889 0 0 0-2.34 1.567c-.254.183-.648.474-.875.647-.227.172-.604.465-.837.65-.234.187-.6.486-.813.665-.214.18-.569.484-.789.677-.22.194-.62.556-.888.805a50.49 50.49 0 0 0-1.052 1.013c-.31.308-.748.757-.974.998-.225.24-.58.628-.789.863a57.06 57.06 0 0 0-.74.851c-.199.234-.537.645-.751.914A89.119 89.119 0 0 0 328 360.07c-.16.229-.414.606-.563.838-.149.232-.379.602-.51.823-.131.22-.317.54-.413.713-.096.171-.299.549-.45.838l-.521.988a39.07 39.07 0 0 0-1.017 2.086c-.136.302-.339.763-.45 1.025-.11.262-.295.713-.409 1.004-.114.29-.303.792-.42 1.115a49.5 49.5 0 0 0-.388 1.125c-.097.296-.239.742-.314.99-.076.25-.2.677-.275.951-.076.274-.2.746-.275 1.05a56.45 56.45 0 0 0-.264 1.112c-.068.31-.18.856-.25 1.214-.067.357-.164.904-.213 1.213-.049.31-.123.811-.164 1.114-.04.303-.102.815-.136 1.138a52.689 52.689 0 0 0-.195 2.452 51.085 51.085 0 0 0-.031 2.114c0 .958.011 1.762.031 2.102a51.92 51.92 0 0 0 .194 2.434c.034.32.096.838.138 1.15a47.709 47.709 0 0 0 .363 2.258 50.335 50.335 0 0 0 .46 2.134c.067.278.196.776.286 1.106.09.33.242.86.338 1.176.096.317.255.817.353 1.113.099.296.27.786.38 1.089.11.303.305.815.433 1.138a48.447 48.447 0 0 0 .915 2.14 52.032 52.032 0 0 0 1.137 2.276c.162.303.42.77.575 1.039a51.266 51.266 0 0 0 1.146 1.889c.15.234.415.633.588.888.173.254.444.643.602.863a54.53 54.53 0 0 0 1.113 1.489 48.649 48.649 0 0 0 1.251 1.523c.205.239.486.56.624.713a45.881 45.881 0 0 0 1.85 1.931c.331.324.845.812 1.142 1.083.298.271.738.662.979.868a50.507 50.507 0 0 0 1.526 1.254 50.853 50.853 0 0 0 1.492 1.116 48.056 48.056 0 0 0 1.861 1.259 50.53 50.53 0 0 0 2.14 1.28c.247.137.634.348.859.468a51.487 51.487 0 0 0 2.092 1.038 48.397 48.397 0 0 0 2.14.915c.323.128.852.329 1.176.446.323.117.88.31 1.238.427.358.117.859.275 1.113.35a51.647 51.647 0 0 0 2.03.55 46.896 46.896 0 0 0 2.01.44c.288.056.755.14 1.038.188.283.047.756.12 1.05.163.296.043.825.11 1.176.15a47.956 47.956 0 0 0 2.267.2c.22.014.732.038 1.138.054.453.017 1.211.023 1.964.014a53.506 53.506 0 0 0 1.676-.04l.826-.053a45.702 45.702 0 0 0 1.701-.151c.248-.028.704-.084 1.014-.125a50.709 50.709 0 0 0 2.577-.424c.282-.056.766-.159 1.076-.228.31-.07.827-.193 1.15-.275.324-.082.844-.223 1.157-.312.313-.088.785-.229 1.05-.312.266-.082.67-.213.896-.29.227-.077.616-.212.863-.302.248-.09.698-.258 1.001-.376.303-.117.86-.345 1.239-.507a49.42 49.42 0 0 0 1.26-.561 47.253 47.253 0 0 0 3.055-1.573 52.077 52.077 0 0 0 2.14-1.3 49.576 49.576 0 0 0 1.676-1.141 48.23 48.23 0 0 0 2.14-1.64c.233-.191.57-.473.75-.626.178-.152.493-.428.7-.612.207-.184.62-.564.918-.845.298-.281.788-.761 1.088-1.067.3-.306.733-.759.96-1.006.227-.248.572-.631.766-.853.194-.222.516-.599.715-.838.199-.24.508-.621.686-.848a47.996 47.996 0 0 0 1.275-1.701c.152-.214.417-.597.59-.851a47.957 47.957 0 0 0 1.289-2.027 48.872 48.872 0 0 0 1.11-1.976 47.776 47.776 0 0 0 1.1-2.24c.099-.22.279-.63.4-.913.12-.282.314-.755.432-1.05.117-.297.309-.803.426-1.127.116-.323.315-.902.442-1.286.126-.385.324-1.027.44-1.428.114-.401.282-1.024.373-1.384.09-.36.22-.906.288-1.212.068-.307.175-.827.238-1.157a48.227 48.227 0 0 0 .348-2.09c.034-.24.09-.68.126-.975.034-.296.085-.786.113-1.089.028-.303.067-.815.088-1.138.02-.324.05-.88.063-1.239a49.875 49.875 0 0 0 0-3.077 50.537 50.537 0 0 0-.151-2.377 50.38 50.38 0 0 0-.113-1.088 51.124 51.124 0 0 0-.126-.976c-.034-.241-.102-.68-.15-.976a51.68 51.68 0 0 0-.2-1.126 48.752 48.752 0 0 0-.238-1.15c-.068-.31-.199-.856-.289-1.214-.09-.358-.231-.887-.313-1.176-.082-.29-.21-.723-.284-.963a47.05 47.05 0 0 0-.815-2.381c-.126-.335-.33-.856-.453-1.159-.124-.303-.33-.788-.458-1.077a53.827 53.827 0 0 0-.444-.975 51.95 51.95 0 0 0-.444-.913 49.047 49.047 0 0 0-.52-1c-.159-.297-.438-.8-.621-1.12-.184-.32-.46-.786-.614-1.038a46.277 46.277 0 0 0-1.794-2.697 50.895 50.895 0 0 0-1.34-1.758c-.212-.265-.529-.65-.703-.857a50.81 50.81 0 0 0-1.388-1.563c-.185-.2-.658-.685-1.05-1.078a52.087 52.087 0 0 0-1.078-1.05 51.065 51.065 0 0 0-1.563-1.388c-.207-.175-.59-.49-.851-.7-.261-.21-.729-.573-1.038-.806-.31-.234-.783-.58-1.051-.77a48.31 48.31 0 0 0-2.264-1.495c-.303-.185-.725-.439-.939-.562-.213-.124-.54-.31-.725-.414a55.41 55.41 0 0 0-.826-.446 48.842 48.842 0 0 0-2.34-1.144c-.274-.124-.747-.33-1.05-.457a52.03 52.03 0 0 0-1.05-.425c-.276-.106-.72-.273-.99-.37-.267-.096-.73-.255-1.025-.353a48.726 48.726 0 0 0-2.058-.626 56.348 56.348 0 0 0-1.945-.487 54.805 54.805 0 0 0-.826-.177c-.24-.05-.68-.134-.976-.187a51.07 51.07 0 0 0-1.113-.186 49.313 49.313 0 0 0-2.314-.289 47.844 47.844 0 0 0-2.027-.153 55.152 55.152 0 0 0-1.851-.035zm-.413 3.82c.51-.003 1.196.006 1.526.02.33.013.792.036 1.026.05.234.015.628.044.876.065a43.714 43.714 0 0 1 2.19.249c.336.048.837.126 1.112.174a47.975 47.975 0 0 1 1.952.387 44.997 44.997 0 0 1 2.19.563c.354.102.94.283 1.303.402.363.12.908.307 1.21.417.303.11.776.29 1.051.4.276.11.687.279.914.376.227.097.61.266.85.376a37.011 37.011 0 0 1 3.54 1.84c.248.145.693.415.989.6a43.469 43.469 0 0 1 2.009 1.348c.223.16.591.432.818.604a41.88 41.88 0 0 1 2.652 2.199c.214.193.613.567.889.831a41.74 41.74 0 0 1 1.846 1.904c.194.213.525.59.738.838.212.248.558.665.768.926.21.261.521.661.694.888.172.227.441.593.599.813a45.732 45.732 0 0 1 1.144 1.683 47.459 47.459 0 0 1 1.159 1.933c.158.282.42.764.581 1.07a40.592 40.592 0 0 1 1.115 2.32c.127.289.325.756.439 1.038.114.282.294.744.4 1.026.105.282.286.794.403 1.138.116.344.289.885.384 1.201.095.317.23.784.298 1.039.07.254.188.716.263 1.026.076.309.188.807.251 1.106.063.3.153.756.2 1.014a41.305 41.305 0 0 1 .326 2.096c.034.275.085.72.113.988a43.798 43.798 0 0 1 .15 1.951c.015.255.034.93.042 1.502.01.64.004 1.33-.014 1.801a57.62 57.62 0 0 1-.066 1.314c-.02.302-.054.736-.075.963a43.145 43.145 0 0 1-.225 1.927 44.804 44.804 0 0 1-.327 1.94 42.835 42.835 0 0 1-.426 1.927c-.062.246-.163.634-.225.861-.062.227-.19.672-.285.988-.095.317-.27.861-.387 1.21-.118.348-.31.887-.427 1.198-.117.31-.297.77-.399 1.022-.102.252-.29.692-.415.978a40.515 40.515 0 0 1-1.112 2.315 50.7 50.7 0 0 1-.583 1.071 47.96 47.96 0 0 1-.611 1.048c-.178.294-.436.711-.574.926a46.22 46.22 0 0 1-.536.809c-.156.23-.416.601-.576.825-.16.224-.433.594-.604.82-.173.228-.485.627-.694.889a42.678 42.678 0 0 1-1.425 1.676 40.637 40.637 0 0 1-3.654 3.56c-.248.213-.675.568-.95.788a47.51 47.51 0 0 1-2.027 1.524c-.207.144-.544.375-.75.513-.207.137-.545.357-.751.488-.207.131-.573.357-.814.502-.24.144-.657.386-.925.537a40.333 40.333 0 0 1-2.965 1.508c-.22.1-.57.255-.776.344a46.243 46.243 0 0 1-1.77.71 49.286 49.286 0 0 1-2.77.911c-.365.105-.974.268-1.354.362-.379.094-.925.222-1.213.284a45.108 45.108 0 0 1-1.85.352 44.497 44.497 0 0 1-1.689.24 43.775 43.775 0 0 1-2.002.186c-.295.02-.875.05-1.288.067-.467.018-1.166.023-1.852.014a49.747 49.747 0 0 1-1.55-.041 49.917 49.917 0 0 1-1.94-.152 46.507 46.507 0 0 1-.976-.113 52.358 52.358 0 0 1-1.063-.151 43.546 43.546 0 0 1-1.213-.21 46.37 46.37 0 0 1-1.164-.237c-.289-.065-.75-.173-1.026-.242a47.883 47.883 0 0 1-1-.264 42.186 42.186 0 0 1-2.119-.657 45.15 45.15 0 0 1-1.026-.366c-.28-.104-.739-.283-1.021-.398-.282-.114-.75-.312-1.039-.439a37.654 37.654 0 0 1-2.064-.98c-.24-.125-.634-.334-.875-.466a46.76 46.76 0 0 1-.951-.538 50.882 50.882 0 0 1-1.034-.624c-.287-.178-.76-.484-1.051-.68a44.045 44.045 0 0 1-.893-.614 45.612 45.612 0 0 1-1.626-1.223c-.2-.158-.526-.423-.725-.59-.2-.166-.555-.47-.789-.674a47.12 47.12 0 0 1-.888-.805 51.126 51.126 0 0 1-2.078-2.089 45.641 45.641 0 0 1-.592-.658 54.52 54.52 0 0 1-.59-.688c-.17-.202-.445-.537-.612-.746a45.645 45.645 0 0 1-1.461-1.948 45.059 45.059 0 0 1-1.352-2.064 47.69 47.69 0 0 1-.563-.95 55.241 55.241 0 0 1-.534-.964 44.738 44.738 0 0 1-.64-1.25 47.14 47.14 0 0 1-.642-1.377c-.158-.358-.4-.932-.538-1.276s-.346-.89-.463-1.213a48.851 48.851 0 0 1-.405-1.176 43.561 43.561 0 0 1-.626-2.126c-.064-.24-.172-.672-.24-.958a47.532 47.532 0 0 1-.258-1.189 46.33 46.33 0 0 1-.237-1.27c-.056-.33-.136-.847-.177-1.15-.042-.303-.1-.76-.128-1.013a39.303 39.303 0 0 1-.173-2.102l-.035-.676-.01-.162.033.075c.02.041.109.272.2.513.091.24.239.612.329.825.09.213.242.563.338.775a32.217 32.217 0 0 0 .927 1.852c.124.227.367.65.54.939.173.289.492.79.707 1.113.216.323.508.746.648.938.141.193.387.518.547.724.16.205.433.543.606.75.173.208.46.541.638.74a32.947 32.947 0 0 0 1.812 1.84c.213.196.562.507.775.69.214.184.584.489.822.679.239.19.622.483.85.65.23.169.671.476.98.683.31.207.8.519 1.089.692.289.172.69.405.893.517a34.608 34.608 0 0 0 2.06 1.023c.26.117.694.3.962.407.269.108.693.27.942.36a27.13 27.13 0 0 0 5.326 1.314c.193.028.559.073.813.101.255.029.683.069.95.09.27.02.856.048 1.306.063.556.017 1.055.017 1.564 0 .41-.015.966-.043 1.234-.064.269-.02.697-.061.951-.089.255-.028.693-.084.973-.125a29.85 29.85 0 0 0 1.68-.3 33.21 33.21 0 0 0 2.263-.586c.303-.092.804-.257 1.114-.367.31-.11.794-.294 1.076-.408.282-.114.687-.284.9-.378a30.808 30.808 0 0 0 2.023-1.004c.243-.133.64-.36.88-.504.24-.144.626-.383.855-.531.23-.148.59-.39.8-.538.212-.148.542-.388.734-.533.193-.145.508-.389.7-.543.193-.154.53-.433.75-.621.219-.188.59-.52.825-.739.235-.218.63-.603.878-.856.248-.252.603-.628.788-.835.186-.206.457-.516.602-.688a38.7 38.7 0 0 0 .515-.625c.138-.172.385-.493.55-.713.164-.22.414-.566.554-.768.141-.203.378-.557.527-.789.15-.23.378-.6.51-.82.131-.22.32-.547.42-.726a35.156 35.156 0 0 0 .902-1.764 32.17 32.17 0 0 0 .811-1.927c.107-.281.276-.76.377-1.063.1-.302.235-.73.298-.95.064-.22.172-.615.24-.876.067-.262.168-.68.224-.932.055-.25.14-.673.189-.938.049-.265.121-.702.161-.97.04-.268.095-.685.123-.926a31.733 31.733 0 0 0 .153-1.901 33.124 33.124 0 0 0 0-2.602 31.57 31.57 0 0 0-.153-1.902c-.028-.24-.083-.657-.123-.925-.04-.269-.112-.705-.161-.97a32.403 32.403 0 0 0-.19-.939 33.03 33.03 0 0 0-.463-1.807 31.9 31.9 0 0 0-.298-.95c-.1-.303-.27-.782-.377-1.064a31.648 31.648 0 0 0-.8-1.901 30.637 30.637 0 0 0-.802-1.59 34.443 34.443 0 0 0-1.04-1.746 32.102 32.102 0 0 0-.528-.788 32.718 32.718 0 0 0-1.104-1.481 36.91 36.91 0 0 0-.515-.625 34.381 34.381 0 0 0-.602-.688 33.39 33.39 0 0 0-.776-.823 30.266 30.266 0 0 0-1.526-1.446 30.516 30.516 0 0 0-2.402-1.877c-.227-.158-.587-.4-.8-.538a37.298 37.298 0 0 0-.764-.476c-.206-.124-.56-.33-.788-.456a31.464 31.464 0 0 0-2.177-1.085c-.295-.13-.712-.308-.925-.393a29.03 29.03 0 0 0-2.752-.935 28.152 28.152 0 0 0-1.569-.39 28.942 28.942 0 0 0-2.76-.45c-.254-.028-.68-.068-.944-.088-.265-.02-.836-.049-1.27-.064a22.222 22.222 0 0 0-1.57 0c-.43.014-.94.038-1.132.052-.193.014-.457.036-.587.048-.13.013-.24.02-.245.015a1.88 1.88 0 0 1 .262-.127c.148-.065.5-.213.782-.33.283-.116.795-.317 1.139-.445.344-.129.879-.32 1.188-.425.31-.105.8-.263 1.089-.35.289-.089.728-.217.975-.286.248-.068.676-.18.951-.25a49.13 49.13 0 0 1 1.026-.241c.289-.065.813-.172 1.163-.238.351-.067.897-.161 1.214-.21.316-.049.795-.117 1.063-.151.269-.035.708-.085.976-.113.268-.027.708-.067.976-.087.268-.02.73-.05 1.026-.064.296-.014.622-.03.725-.033.104-.004.604-.01 1.114-.012zm-12.607 7.07c.29.003.734.018.988.032.255.014.65.042.876.063.227.021.588.06.8.088.214.028.563.078.776.113.214.034.61.107.88.161.271.055.698.15.949.212.25.062.648.169.884.237.235.067.602.18.815.251a25.015 25.015 0 0 1 1.664.618 24.642 24.642 0 0 1 1.47.673c.205.102.548.283.764.401.216.119.573.323.793.454.22.132.58.357.801.5.22.144.571.384.78.534.208.149.535.391.725.538a27.057 27.057 0 0 1 1.322 1.098c.152.135.43.391.62.57.189.179.55.546.803.816.253.27.543.586.646.703.103.117.326.381.495.587.17.206.468.589.664.85.195.263.496.685.668.94.172.254.423.641.557.86.134.218.367.618.518.888a26.454 26.454 0 0 1 .954 1.905 29.045 29.045 0 0 1 .693 1.738c.084.234.22.642.3.907.083.265.2.67.261.9.061.232.157.617.212.858.056.24.14.646.188.9.048.256.115.655.15.889a26.486 26.486 0 0 1 .226 2.177l.013.2-.037-.075c-.02-.041-.125-.267-.232-.501a17.242 17.242 0 0 0-.39-.784 23.057 23.057 0 0 0-.396-.7 20.483 20.483 0 0 0-.47-.742c-.147-.22-.386-.559-.53-.752a19.929 19.929 0 0 0-.543-.688 17.06 17.06 0 0 0-4.844-3.995 19.064 19.064 0 0 0-.558-.293 19.045 19.045 0 0 0-1.367-.607 21.207 21.207 0 0 0-.675-.249c-.18-.062-.536-.172-.79-.246-.255-.074-.666-.18-.914-.235a19.731 19.731 0 0 0-.9-.177 20.244 20.244 0 0 0-.901-.125 22.236 22.236 0 0 0-.863-.075 19.344 19.344 0 0 0-1.964-.001c-.207.013-.5.036-.65.05a18.068 18.068 0 0 0-1.614.239c-.241.049-.635.138-.876.2s-.635.176-.876.252c-.24.076-.59.196-.776.265-.185.069-.53.208-.767.309-.236.1-.612.275-.835.386-.224.112-.547.283-.72.38-.172.096-.43.247-.572.335a18.622 18.622 0 0 0-1.296.881c-.193.145-.508.395-.701.556a17.625 17.625 0 0 0-1.483 1.398c-.184.2-.477.531-.65.739-.174.207-.444.549-.6.759a19.828 19.828 0 0 0-.951 1.422c-.083.138-.226.389-.318.556a19.438 19.438 0 0 0-.739 1.53c-.084.2-.226.562-.315.805-.088.243-.216.629-.285.857-.07.23-.17.593-.224.81a19.24 19.24 0 0 0-.161.706 25.32 25.32 0 0 0-.114.613c-.028.165-.073.48-.1.7-.028.22-.065.559-.082.751-.02.22-.033.73-.033 1.364 0 .634.012 1.144.033 1.363a19.594 19.594 0 0 0 .182 1.451c.028.166.08.441.114.614.034.172.107.49.161.706.054.217.154.578.222.803.068.224.191.598.275.83.084.232.238.625.344.874.106.249.302.671.436.94.134.268.337.651.453.85.115.2.304.513.42.696a19.673 19.673 0 0 0 .95 1.342c.11.138.324.398.477.577.154.18.41.465.57.636a17.476 17.476 0 0 0 1.418 1.326c.193.16.424.35.515.42a20.742 20.742 0 0 0 1.011.72 18.163 18.163 0 0 0 1.043.635 19.956 19.956 0 0 0 1.406.704c.18.078.52.217.754.307.234.09.617.225.85.3.234.077.6.184.814.24.213.056.54.135.725.176.186.041.501.103.7.137.2.035.544.086.764.114.22.028.558.063.75.08.193.015.627.035.964.044l.613.016-.363.134a27.577 27.577 0 0 1-1.572.518 27.463 27.463 0 0 1-1.68.421 26.505 26.505 0 0 1-1.852.314 27.172 27.172 0 0 1-1.65.152 28.01 28.01 0 0 1-1.302.026c-.489 0-1.085-.012-1.326-.026-.241-.014-.624-.044-.851-.064a25.227 25.227 0 0 1-1.501-.187 27.141 27.141 0 0 1-1.895-.386c-.245-.06-.585-.15-.757-.199a29.487 29.487 0 0 1-1.464-.465 28.25 28.25 0 0 1-1.464-.575 29.6 29.6 0 0 1-2.29-1.145 30.47 30.47 0 0 1-.787-.469 33.212 33.212 0 0 1-.65-.422c-.186-.124-.502-.343-.701-.487a27.385 27.385 0 0 1-1.114-.854c-.11-.09-.36-.302-.557-.472a24.9 24.9 0 0 1-1.504-1.42 29.625 29.625 0 0 1-1.297-1.456 27.127 27.127 0 0 1-1.988-2.808 34.934 34.934 0 0 1-.422-.726 28.126 28.126 0 0 1-1.01-2.026 28.786 28.786 0 0 1-.333-.8c-.09-.226-.23-.598-.311-.826a28.725 28.725 0 0 1-.322-.977c-.095-.31-.24-.827-.322-1.15a27.065 27.065 0 0 1-.25-1.089c-.055-.275-.13-.673-.165-.885a29.563 29.563 0 0 1-.256-2.08c-.036-.432-.045-.798-.045-1.864 0-.863.011-1.465.033-1.726.017-.22.06-.654.094-.963.035-.31.09-.743.124-.964.034-.22.091-.558.127-.75a30.041 30.041 0 0 1 .363-1.64 26.67 26.67 0 0 1 .415-1.414 27.696 27.696 0 0 1 .71-1.902c.097-.23.282-.64.409-.91.127-.269.386-.76.575-1.089.19-.33.504-.853.697-1.163.193-.31.506-.795.695-1.077.19-.282.486-.713.66-.956.173-.244.424-.577.557-.738.133-.163.355-.424.494-.581a23.264 23.264 0 0 1 1.558-1.609c.259-.241.583-.537.72-.657.138-.12.465-.39.726-.6.262-.208.633-.495.826-.637a27.573 27.573 0 0 1 1.801-1.195c.207-.124.541-.316.743-.428a25.896 25.896 0 0 1 1.64-.82c.231-.105.626-.275.878-.377.251-.103.658-.258.902-.346.245-.087.627-.216.85-.286a27.779 27.779 0 0 1 1.643-.45c.179-.041.488-.109.688-.15a25.704 25.704 0 0 1 1.676-.277c.214-.028.568-.067.788-.087a27.296 27.296 0 0 1 1.664-.097c.172-.003.55-.002.838.002zm7.786 16.221c.29-.002.702.01.913.023.21.015.552.048.759.074.206.027.533.077.725.112.193.036.536.11.763.167.228.056.61.167.851.246.241.079.58.2.754.27a13.418 13.418 0 0 1 1.222.561c.159.085.412.227.564.316.15.09.41.253.575.363.165.11.425.292.577.404.152.113.416.322.588.465a15.743 15.743 0 0 1 1.427 1.401c.153.176.374.442.49.591.115.149.315.422.444.608.128.186.331.501.45.7.12.199.323.572.453.828.13.257.309.644.398.859.09.215.226.573.302.795.076.222.184.568.239.769.055.2.139.545.186.765.047.22.114.598.148.839.034.24.076.584.094.763.019.19.032.661.032 1.138 0 .477-.013.948-.032 1.139-.018.179-.06.522-.094.763-.034.24-.1.618-.148.838-.047.22-.131.565-.186.766-.055.2-.163.546-.239.768-.076.222-.212.58-.302.796-.09.215-.269.602-.398.858-.13.257-.333.63-.453.829-.119.199-.322.513-.45.7-.129.185-.329.459-.445.607-.115.15-.336.415-.489.591a15.332 15.332 0 0 1-1.427 1.401c-.172.143-.436.353-.588.465-.152.113-.412.295-.577.405-.165.11-.424.274-.575.363a13.32 13.32 0 0 1-1.785.876c-.175.07-.514.192-.755.27-.24.08-.624.19-.85.247-.228.056-.571.131-.764.166-.192.036-.519.086-.725.112-.207.026-.548.06-.76.074-.21.015-.59.027-.842.027s-.631-.012-.842-.027a15.91 15.91 0 0 1-.759-.074 16.434 16.434 0 0 1-.726-.112c-.192-.035-.535-.11-.763-.166-.227-.056-.645-.179-.93-.273a15.24 15.24 0 0 1-.963-.363 15.291 15.291 0 0 1-.85-.398 16.33 16.33 0 0 1-.725-.402 14.335 14.335 0 0 1-.597-.382 18.304 18.304 0 0 1-.526-.376 15.855 15.855 0 0 1-.533-.425 14.2 14.2 0 0 1-.59-.53 21.496 21.496 0 0 1-.544-.542 13.076 13.076 0 0 1-1.772-2.373 15.45 15.45 0 0 1-.438-.826 15.901 15.901 0 0 1-.388-.86c-.085-.213-.22-.584-.3-.826-.08-.242-.197-.649-.26-.903a16.308 16.308 0 0 1-.179-.81 15.627 15.627 0 0 1-.187-1.504 15.412 15.412 0 0 1 0-1.777 15.677 15.677 0 0 1 .187-1.504c.035-.191.116-.556.179-.81.063-.255.18-.661.26-.903.08-.242.215-.614.3-.826.085-.212.26-.6.388-.86.128-.262.325-.634.438-.826a15.273 15.273 0 0 1 .955-1.417c.114-.146.321-.4.461-.563.14-.164.466-.506.726-.76a16.5 16.5 0 0 1 .76-.703c.158-.132.41-.333.562-.446a13.797 13.797 0 0 1 1.226-.816 14.671 14.671 0 0 1 1.451-.726 14.7 14.7 0 0 1 .964-.362c.282-.093.698-.216.925-.272.228-.056.57-.13.764-.166.192-.035.524-.086.738-.113a15.6 15.6 0 0 1 .688-.07c.165-.012.538-.024.83-.026z" transform="translate(-170.93 -127.13) scale(1.3311)"/></svg>